<svg width="512" height="512" viewBox="0 0 100 100" fill="none" xmlns="http://www.w3.org/2000/svg"><circle cx="50" cy="50" r="35" stroke="#F6C814" stroke-width="2" fill="none" opacity="0.3"/><circle cx="50" cy="50" r="28" stroke="#F6C814" stroke-width="2" fill="none" opacity="0.5"/><circle cx="50" cy="50" r="21" stroke="#F6C814" stroke-width="2" fill="none" opacity="0.7"/><line x1="50" y1="50" x2="50" y2="15" stroke="#FBBF24" stroke-width="3" stroke-linecap="round" opacity="0.9"/><line x1="50" y1="50" x2="75" y2="30" stroke="#FBBF24" stroke-width="2.5" stroke-linecap="round" opacity="0.7"/><circle cx="65" cy="35" r="4" fill="#FBBF24" opacity="0.9"><animate attributeName="opacity" values="0.4;1;0.4" dur="2s" repeatCount="indefinite"/></circle><circle cx="35" cy="30" r="3.5" fill="#FBBF24" opacity="0.8"><animate attributeName="opacity" values="0.3;0.9;0.3" dur="2.5s" repeatCount="indefinite"/></circle><circle cx="70" cy="60" r="3" fill="#FBBF24" opacity="0.7"><animate attributeName="opacity" values="0.2;0.8;0.2" dur="3s" repeatCount="indefinite"/></circle><circle cx="50" cy="50" r="12" fill="#F6C814" opacity="0.9"/><circle cx="50" cy="50" r="6" fill="#FBBF24"/><path d="M45 62 L40 65 L40 70 C40 72 42 73 45 73 L55 73 C58 73 60 72 60 70 L60 65 L55 62 Z" fill="#F6C814" opacity="0.8"/><ellipse cx="50" cy="62" rx="5" ry="3" fill="#FBBF24"/></svg>