<svg width="512" height="512" viewBox="0 0 100 100" fill="none" xmlns="http://www.w3.org/2000/svg"><path d="M50 20 C65 20 75 30 75 45 C75 50 73 55 70 58 C73 60 75 65 75 70 C75 80 65 85 50 85 C35 85 25 80 25 70 C25 65 27 60 30 58 C27 55 25 50 25 45 C25 30 35 20 50 20 Z" fill="#EF4444" opacity="0.9"/><circle cx="38" cy="45" r="4" fill="#F87171"/><circle cx="35" cy="55" r="3" fill="#F87171" opacity="0.8"/><circle cx="40" cy="65" r="3.5" fill="#F87171" opacity="0.8"/><line x1="38" y1="45" x2="35" y2="55" stroke="#F87171" stroke-width="2" opacity="0.6"/><line x1="35" y1="55" x2="40" y2="65" stroke="#F87171" stroke-width="2" opacity="0.6"/><circle cx="62" cy="45" r="4" fill="#F87171"/><circle cx="65" cy="55" r="3" fill="#F87171" opacity="0.8"/><circle cx="60" cy="65" r="3.5" fill="#F87171" opacity="0.8"/><line x1="62" y1="45" x2="65" y2="55" stroke="#F87171" stroke-width="2" opacity="0.6"/><line x1="65" y1="55" x2="60" y2="65" stroke="#F87171" stroke-width="2" opacity="0.6"/><circle cx="50" cy="55" r="8" fill="#F87171"/><circle cx="50" cy="55" r="4" fill="#FECACA"/><line x1="40" y1="65" x2="50" y2="55" stroke="#F87171" stroke-width="1.5" opacity="0.4"/><line x1="60" y1="65" x2="50" y2="55" stroke="#F87171" stroke-width="1.5" opacity="0.4"/><line x1="38" y1="45" x2="50" y2="55" stroke="#F87171" stroke-width="1.5" opacity="0.4"/><line x1="62" y1="45" x2="50" y2="55" stroke="#F87171" stroke-width="1.5" opacity="0.4"/></svg>