<svg width="512" height="512" viewBox="0 0 100 100" fill="none" xmlns="http://www.w3.org/2000/svg"><circle cx="50" cy="50" r="30" stroke="#10B981" stroke-width="4" fill="none" opacity="0.9"/><circle cx="50" cy="50" r="35" stroke="#10B981" stroke-width="2" fill="none" opacity="0.5" stroke-dasharray="8 8"/><path d="M50 35 L60 50 L50 48 Z" fill="#34D399" opacity="0.8"/><path d="M50 35 L40 50 L50 48 Z" fill="#34D399" opacity="0.8"/><path d="M50 48 L60 63 L40 63 Z" fill="#10B981" opacity="0.9"/><rect x="48" y="15" width="4" height="10" rx="1" fill="#34D399"/><rect x="48" y="75" width="4" height="10" rx="1" fill="#34D399"/><rect x="15" y="48" width="10" height="4" ry="1" fill="#34D399"/><rect x="75" y="48" width="10" height="4" ry="1" fill="#34D399"/><circle cx="28" cy="28" r="3" fill="#34D399" opacity="0.8"/><circle cx="72" cy="28" r="3" fill="#34D399" opacity="0.8"/><circle cx="28" cy="72" r="3" fill="#34D399" opacity="0.8"/><circle cx="72" cy="72" r="3" fill="#34D399" opacity="0.8"/><path d="M50 45 L52 49 L56 50 L52 51 L50 55 L48 51 L44 50 L48 49 Z" fill="#A7F3D0"/><line x1="50" y1="50" x2="50" y2="20" stroke="#34D399" stroke-width="1.5" opacity="0.3"/><line x1="50" y1="50" x2="50" y2="80" stroke="#34D399" stroke-width="1.5" opacity="0.3"/><line x1="50" y1="50" x2="20" y2="50" stroke="#34D399" stroke-width="1.5" opacity="0.3"/><line x1="50" y1="50" x2="80" y2="50" stroke="#34D399" stroke-width="1.5" opacity="0.3"/></svg>