<svg width="512" height="512" viewBox="0 0 100 100" fill="none" xmlns="http://www.w3.org/2000/svg"><path d="M50 25 L70 37.5 L70 62.5 L50 75 L30 62.5 L30 37.5 Z" fill="#6767EB" opacity="0.9"/><path d="M50 35 L62 42 L62 58 L50 65 L38 58 L38 42 Z" fill="none" stroke="#8B8BF0" stroke-width="2" opacity="0.6"/><circle cx="50" cy="20" r="5" fill="#8B8BF0"/><circle cx="75" cy="35" r="5" fill="#8B8BF0" opacity="0.9"/><circle cx="75" cy="65" r="5" fill="#8B8BF0" opacity="0.9"/><circle cx="50" cy="80" r="5" fill="#8B8BF0"/><circle cx="25" cy="65" r="5" fill="#8B8BF0" opacity="0.9"/><circle cx="25" cy="35" r="5" fill="#8B8BF0" opacity="0.9"/><line x1="50" y1="50" x2="50" y2="25" stroke="#8B8BF0" stroke-width="2" opacity="0.5"/><line x1="50" y1="50" x2="70" y2="37" stroke="#8B8BF0" stroke-width="2" opacity="0.5"/><line x1="50" y1="50" x2="70" y2="63" stroke="#8B8BF0" stroke-width="2" opacity="0.5"/><line x1="50" y1="50" x2="50" y2="75" stroke="#8B8BF0" stroke-width="2" opacity="0.5"/><line x1="50" y1="50" x2="30" y2="63" stroke="#8B8BF0" stroke-width="2" opacity="0.5"/><line x1="50" y1="50" x2="30" y2="37" stroke="#8B8BF0" stroke-width="2" opacity="0.5"/><circle cx="50" cy="50" r="8" fill="#B3B3F6"/><circle cx="50" cy="50" r="4" fill="#8B8BF0"/><path d="M50 42 L54 46 L50 46 Z" fill="#E0E0FD"/><path d="M58 50 L54 54 L54 50 Z" fill="#E0E0FD"/><path d="M50 58 L46 54 L50 54 Z" fill="#E0E0FD"/><path d="M42 50 L46 46 L46 50 Z" fill="#E0E0FD"/></svg>