<svg width="512" height="512" viewBox="0 0 100 100" fill="none" xmlns="http://www.w3.org/2000/svg"><circle cx="50" cy="50" r="35" stroke="#14B8A6" stroke-width="3" fill="none" opacity="0.8"/><rect x="47" y="35" width="6" height="30" rx="3" fill="#0F766E"/><path d="M50 35 L35 25" stroke="#14B8A6" stroke-width="4" stroke-linecap="round"/><path d="M50 35 L65 25" stroke="#14B8A6" stroke-width="4" stroke-linecap="round"/><path d="M50 45 L38 38" stroke="#14B8A6" stroke-width="3" stroke-linecap="round" opacity="0.8"/><path d="M50 45 L62 38" stroke="#14B8A6" stroke-width="3" stroke-linecap="round" opacity="0.8"/><path d="M50 65 L38 72" stroke="#0F766E" stroke-width="4" stroke-linecap="round"/><path d="M50 65 L62 72" stroke="#0F766E" stroke-width="4" stroke-linecap="round"/><path d="M50 65 L50 75" stroke="#0F766E" stroke-width="4" stroke-linecap="round"/><circle cx="35" cy="25" r="4" fill="#2DD4BF"/><circle cx="65" cy="25" r="4" fill="#2DD4BF"/><circle cx="38" cy="38" r="3" fill="#2DD4BF" opacity="0.9"/><circle cx="62" cy="38" r="3" fill="#2DD4BF" opacity="0.9"/><circle cx="38" cy="72" r="4" fill="#0F766E"/><circle cx="62" cy="72" r="4" fill="#0F766E"/><circle cx="50" cy="75" r="4" fill="#0F766E"/><circle cx="50" cy="50" r="6" fill="#2DD4BF"/><circle cx="50" cy="50" r="3" fill="#0F766E" opacity="0.6"/></svg>